<svg xmlns="http://www.w3.org/2000/svg" xmlns:xlink="http://www.w3.org/1999/xlink" xmlns:inkscape="http://www.inkscape.org/namespaces/inkscape" version="1.1" width="425.197" height="76.4821" viewBox="0 0 425.197 76.4821">
<defs>
<clipPath id="clip_0">
<path transform="matrix(1,0,0,-1,0,76.4821)" d="M0 76.482H425.197V0H0Z"/>
</clipPath>
<clipPath id="clip_1">
<path transform="matrix(1,0,0,-1,0,76.4821)" d="M0 61.1254H12.6368V73.6804H0Z"/>
</clipPath>
<clipPath id="clip_2">
<path transform="matrix(1,0,0,-1,0,76.4821)" d="M19.8578 61.1254H32.4946V73.6804H19.8578Z"/>
</clipPath>
<clipPath id="clip_3">
<path transform="matrix(1,0,0,-1,0,76.4821)" d="M19.8578 41.3962H32.4946V53.9511H19.8578Z"/>
</clipPath>
<clipPath id="clip_4">
<path transform="matrix(1,0,0,-1,0,76.4821)" d="M41.5208 41.3962H54.1576V53.9511H41.5208Z"/>
</clipPath>
<clipPath id="clip_5">
<path transform="matrix(1,0,0,-1,0,76.4821)" d="M19.8578 21.6669H32.4946V34.2219H19.8578Z"/>
</clipPath>
<clipPath id="clip_6">
<path transform="matrix(1,0,0,-1,0,76.4821)" d="M61.3786 41.3962H74.0154V53.9511H61.3786Z"/>
</clipPath>
<clipPath id="clip_7">
<path transform="matrix(1,0,0,-1,0,76.4821)" d="M41.5208 21.6669H54.1576V34.2219H41.5208Z"/>
</clipPath>
<clipPath id="clip_8">
<path transform="matrix(1,0,0,-1,0,76.4821)" d="M41.5208 .144089H54.1576V12.6991H41.5208Z"/>
</clipPath>
<clipPath id="clip_9">
<path transform="matrix(1,0,0,-1,0,76.4821)" d="M61.3786 .144089H74.0154V12.6991H61.3786Z"/>
</clipPath>
</defs>
<g>
<g inkscape:groupmode="layer" inkscape:label="Layer 1">
<g clip-path="url(#clip_0)">
<g opacity=".199997">
<g clip-path="url(#clip_1)">
<path transform="matrix(1,0,0,-1,6.3181,2.8016053)" d="M0 0C3.49 0 6.319-2.811 6.319-6.278 6.319-9.745 3.49-12.555 0-12.555-3.49-12.555-6.318-9.745-6.318-6.278-6.318-2.811-3.49 0 0 0" fill="#13141f"/>
</g>
</g>
<g opacity=".399994">
<g clip-path="url(#clip_2)">
<path transform="matrix(1,0,0,-1,26.1761,2.8016053)" d="M0 0C3.49 0 6.318-2.811 6.318-6.278 6.318-9.745 3.49-12.555 0-12.555-3.49-12.555-6.318-9.745-6.318-6.278-6.318-2.811-3.49 0 0 0" fill="#13141f"/>
</g>
</g>
<path transform="matrix(1,0,0,-1,47.8392,2.8016053)" d="M0 0C3.49 0 6.318-2.811 6.318-6.278 6.318-9.745 3.49-12.555 0-12.555-3.49-12.555-6.318-9.745-6.318-6.278-6.318-2.811-3.49 0 0 0" fill="#13141f"/>
<g opacity=".199997">
<g clip-path="url(#clip_3)">
<path transform="matrix(1,0,0,-1,26.1761,22.531102)" d="M0 0C3.49 0 6.318-2.81 6.318-6.277 6.318-9.745 3.49-12.555 0-12.555-3.49-12.555-6.318-9.745-6.318-6.277-6.318-2.81-3.49 0 0 0" fill="#13141f"/>
</g>
</g>
<g opacity=".399994">
<g clip-path="url(#clip_4)">
<path transform="matrix(1,0,0,-1,47.8392,22.531102)" d="M0 0C3.49 0 6.318-2.81 6.318-6.277 6.318-9.745 3.49-12.555 0-12.555-3.49-12.555-6.318-9.745-6.318-6.277-6.318-2.81-3.49 0 0 0" fill="#13141f"/>
</g>
</g>
<g opacity=".399994">
<g clip-path="url(#clip_5)">
<path transform="matrix(1,0,0,-1,26.1761,42.2606)" d="M0 0C3.49 0 6.318-2.809 6.318-6.277 6.318-9.745 3.49-12.555 0-12.555-3.49-12.555-6.318-9.745-6.318-6.277-6.318-2.809-3.49 0 0 0" fill="#13141f"/>
</g>
</g>
<g opacity=".600006">
<g clip-path="url(#clip_6)">
<path transform="matrix(1,0,0,-1,67.6971,22.531102)" d="M0 0C3.49 0 6.318-2.81 6.318-6.277 6.318-9.745 3.49-12.555 0-12.555-3.49-12.555-6.318-9.745-6.318-6.277-6.318-2.81-3.49 0 0 0" fill="#13141f"/>
</g>
</g>
<g opacity=".600006">
<g clip-path="url(#clip_7)">
<path transform="matrix(1,0,0,-1,47.8392,42.2606)" d="M0 0C3.49 0 6.318-2.809 6.318-6.277 6.318-9.745 3.49-12.555 0-12.555-3.49-12.555-6.318-9.745-6.318-6.277-6.318-2.809-3.49 0 0 0" fill="#13141f"/>
</g>
</g>
<path transform="matrix(1,0,0,-1,87.555,22.531102)" d="M0 0C3.49 0 6.318-2.81 6.318-6.277 6.318-9.745 3.49-12.555 0-12.555-3.49-12.555-6.318-9.745-6.318-6.277-6.318-2.81-3.49 0 0 0" fill="#13141f"/>
<path transform="matrix(1,0,0,-1,67.6971,42.2606)" d="M0 0C3.49 0 6.318-2.809 6.318-6.277 6.318-9.745 3.49-12.555 0-12.555-3.49-12.555-6.318-9.745-6.318-6.277-6.318-2.809-3.49 0 0 0" fill="#13141f"/>
<g opacity=".199997">
<g clip-path="url(#clip_8)">
<path transform="matrix(1,0,0,-1,47.8392,63.783)" d="M0 0C3.49 0 6.318-2.81 6.318-6.277 6.318-9.745 3.49-12.555 0-12.555-3.49-12.555-6.318-9.745-6.318-6.277-6.318-2.81-3.49 0 0 0" fill="#13141f"/>
</g>
</g>
<g opacity=".399994">
<g clip-path="url(#clip_9)">
<path transform="matrix(1,0,0,-1,67.6971,63.783)" d="M0 0C3.49 0 6.318-2.81 6.318-6.277 6.318-9.745 3.49-12.555 0-12.555-3.49-12.555-6.318-9.745-6.318-6.277-6.318-2.81-3.49 0 0 0" fill="#13141f"/>
</g>
</g>
<path transform="matrix(1,0,0,-1,110.6927,42.91)" d="M0 0H25.987L12.993 23.095ZM31.272-9.467H-5.285L-17.508-31.174H-28.629L12.993 42.91 54.617-31.174H43.495Z" fill="#0f1924"/>
<path transform="matrix(1,0,0,-1,186.5706,36.8524)" d="M0 0H23.784C33.034 0 36.556 3.029 36.556 8.456 36.556 13.883 33.034 16.785 23.784 16.785H0ZM0-37.231H-9.14V26.125H24.774C34.793 26.125 46.136 21.96 46.136 8.456 46.136-1.514 39.97-6.436 32.704-8.458L49.108-37.231H38.428L22.902-9.341H0Z" fill="#0f1924"/>
<path transform="matrix(1,0,0,-1,271.2547,45.5623)" d="M0 0H21.472L10.79 19.185ZM26.646-9.212H-5.175L-15.967-28.521H-26.759L10.79 38.495 48.448-28.521H37.549Z" fill="#0f1924"/>
<path transform="matrix(1,0,0,-1,401.6326,30.162903)" d="M0 0-26.977-46.319-53.955 0-68.05-43.921H-77.52L-56.268 22.717-26.977-27.515 2.313 22.717 23.564-43.921H14.095Z" fill="#0f1924"/>
</g>
</g>
</g>
</svg>
