<?xml version="1.0" standalone="no"?>
<!DOCTYPE svg PUBLIC "-//W3C//DTD SVG 20010904//EN"
 "http://www.w3.org/TR/2001/REC-SVG-20010904/DTD/svg10.dtd">
<svg version="1.0" xmlns="http://www.w3.org/2000/svg"
 width="337.000000pt" height="150.000000pt" viewBox="0 0 337.000000 150.000000"
 preserveAspectRatio="xMidYMid meet">

<g transform="translate(0.000000,150.000000) scale(0.100000,-0.100000)"
fill="#000000" stroke="none">
<path d="M1673 1042 l-260 -457 -134 0 c-130 1 -136 2 -201 33 -44 21 -82 50
-114 85 l-47 52 156 6 c149 5 157 6 221 38 75 37 118 83 146 159 37 99 57 92
-239 92 -143 0 -262 4 -265 9 -10 15 84 99 140 126 37 17 84 29 139 35 115 12
159 27 211 73 51 45 80 96 90 157 l7 43 -199 -6 c-224 -6 -274 -15 -399 -76
-143 -70 -258 -197 -307 -338 -19 -56 -23 -88 -22 -178 0 -97 3 -118 28 -180
77 -190 234 -323 446 -376 70 -18 105 -20 263 -17 176 3 184 4 234 31 29 15
67 42 85 60 18 18 89 131 156 251 68 119 125 216 127 214 1 -2 60 -103 129
-225 139 -243 168 -277 263 -313 42 -16 78 -20 163 -20 61 0 110 2 110 4 0 4
-139 249 -535 943 l-132 232 -260 -457z"/>
<path d="M0 1025 c0 -439 1 -467 20 -518 36 -96 131 -172 231 -184 l49 -6 0
222 0 221 123 0 124 0 -1 118 c-1 64 2 129 7 144 l7 27 -127 3 -128 3 -3 63
-3 62 155 0 155 0 43 62 c54 78 154 162 249 210 l74 38 -487 0 -488 0 0 -465z"/>
<path d="M2109 1424 c21 -38 130 -229 241 -424 111 -195 227 -399 257 -453 64
-114 102 -156 175 -194 50 -26 62 -28 203 -31 88 -2 164 0 185 7 98 29 171
108 189 204 l8 47 -214 2 -215 3 -154 269 c-85 148 -154 271 -154 272 0 1 -30
53 -66 115 -77 133 -119 180 -193 217 -48 23 -70 27 -178 30 l-123 4 39 -68z"/>
<path d="M1774 513 c-50 -91 -81 -131 -128 -165 l-39 -28 230 0 230 0 -8 46
c-11 58 -39 104 -92 149 -34 29 -116 65 -148 65 -4 0 -24 -30 -45 -67z"/>
<path d="M77 188 c-3 -7 -21 -50 -41 -96 -25 -58 -31 -82 -22 -82 8 0 19 14
25 30 8 24 16 30 38 30 35 0 48 -9 57 -37 4 -13 13 -23 21 -23 9 0 2 28 -27
93 -45 105 -44 102 -51 85z m27 -85 c6 -20 4 -23 -18 -23 -29 0 -31 7 -14 45
12 27 19 23 32 -22z"/>
<path d="M1054 166 c-42 -42 -45 -82 -9 -124 31 -36 66 -46 111 -32 58 19 83
100 46 146 -43 54 -100 58 -148 10z m117 -15 c35 -36 37 -61 6 -97 -48 -55
-127 -25 -127 47 0 29 6 42 26 58 36 28 60 26 95 -8z"/>
<path d="M1528 184 c-102 -55 -31 -213 79 -177 15 5 29 17 31 26 3 15 1 15
-28 1 -73 -37 -145 55 -90 114 26 28 62 37 90 22 28 -15 41 -3 16 16 -25 18
-63 17 -98 -2z"/>
<path d="M2200 106 c0 -57 4 -96 10 -96 6 0 10 29 10 68 l1 67 64 -70 64 -70
1 93 c0 60 -4 92 -11 92 -7 0 -10 -23 -7 -65 1 -36 1 -65 -2 -65 -3 0 -34 32
-68 71 l-62 70 0 -95z"/>
<path d="M388 100 c20 -49 38 -90 42 -90 6 0 70 158 70 173 0 4 -4 7 -9 7 -6
0 -20 -27 -32 -60 -12 -33 -25 -63 -29 -65 -4 -2 -17 25 -29 60 -13 36 -29 65
-36 65 -8 0 0 -30 23 -90z"/>
<path d="M700 180 c0 -5 11 -10 25 -10 25 0 25 -1 25 -80 0 -64 3 -80 15 -80
12 0 15 16 15 80 0 79 0 80 25 80 14 0 25 5 25 10 0 6 -28 10 -65 10 -37 0
-65 -4 -65 -10z"/>
<path d="M1870 100 l0 -90 50 0 c28 0 50 5 50 10 0 6 -18 10 -40 10 -39 0 -40
1 -40 35 0 34 1 35 40 35 22 0 40 5 40 10 0 6 -18 10 -40 10 -36 0 -40 3 -40
25 0 22 4 25 34 25 19 0 38 5 41 10 4 6 -13 10 -44 10 l-51 0 0 -90z"/>
<path d="M2570 180 c0 -5 11 -10 25 -10 25 0 25 -1 25 -80 0 -64 3 -80 15 -80
12 0 15 16 15 80 0 79 0 80 25 80 14 0 25 5 25 10 0 6 -28 10 -65 10 -37 0
-65 -4 -65 -10z"/>
<path d="M2920 100 l0 -90 50 0 c28 0 50 5 50 10 0 6 -18 10 -40 10 -39 0 -40
1 -40 35 0 33 2 35 35 35 19 0 35 5 35 10 0 6 -16 10 -35 10 -31 0 -35 3 -35
25 0 22 4 25 34 25 19 0 38 5 41 10 4 6 -13 10 -44 10 l-51 0 0 -90z"/>
<path d="M3240 100 c0 -73 3 -90 15 -90 11 0 15 11 15 42 l0 42 31 -42 c17
-23 37 -42 46 -42 11 0 10 6 -7 30 -11 16 -25 32 -30 35 -16 10 -11 22 10 28
26 7 35 33 22 63 -10 20 -19 24 -57 24 l-45 0 0 -90z m82 56 c12 -17 9 -25
-11 -36 -33 -17 -41 -12 -41 26 0 32 2 35 23 28 12 -4 25 -12 29 -18z"/>
</g>
</svg>
