<?xml version="1.0" encoding="UTF-8" standalone="no"?>
<svg
   version="1.0"
   width="43.459399mm"
   height="28.473399mm"
   id="svg10"
   sodipodi:docname="kongrad_logo (1).wmf"
   xmlns:inkscape="http://www.inkscape.org/namespaces/inkscape"
   xmlns:sodipodi="http://sodipodi.sourceforge.net/DTD/sodipodi-0.dtd"
   xmlns="http://www.w3.org/2000/svg"
   xmlns:svg="http://www.w3.org/2000/svg">
  <sodipodi:namedview
     id="namedview10"
     pagecolor="#ffffff"
     bordercolor="#000000"
     borderopacity="0.25"
     inkscape:showpageshadow="2"
     inkscape:pageopacity="0.0"
     inkscape:pagecheckerboard="0"
     inkscape:deskcolor="#d1d1d1"
     inkscape:document-units="mm" />
  <defs
     id="defs1">
    <pattern
       id="WMFhbasepattern"
       patternUnits="userSpaceOnUse"
       width="6"
       height="6"
       x="0"
       y="0" />
  </defs>
  <path
     style="fill:#ed3237;fill-rule:evenodd;fill-opacity:1;stroke:none;"
     d="  M 77.3604,0   L 109.35108,0   L 77.1039,34.472844   L 109.35108,68.699599   L 77.3604,68.699599   L 45.11322,34.472844   L 77.3604,0  z "
     id="path1" />
  <path
     style="fill:#ed3237;fill-rule:evenodd;fill-opacity:1;stroke:none;"
     d="  M 140.14134,73.744406   L 111.94686,73.744406   L 111.99816,68.545794   L 79.75098,34.329292   L 107.99676,34.329292   L 140.24394,68.545794   L 140.14134,73.744406  z "
     id="path2" />
  <path
     style="fill:#ed3237;fill-rule:evenodd;fill-opacity:1;stroke:none;"
     d="  M 42.0147,0   L 74.00538,0   L 41.7582,34.472844   L 74.00538,68.699599   L 42.0147,68.699599   L 9.76752,34.472844   L 42.0147,0  z "
     id="path3" />
  <path
     style="fill:#373435;fill-rule:evenodd;fill-opacity:1;stroke:none;"
     d="  M 0,77.41522   L 6.0534,77.394713   L 6.0534,86.48972   L 14.68206,77.41522   L 23.02344,77.394713   L 9.5418,92.693191   L 23.65956,107.50975   L 14.37426,107.50975   L 6.0534,99.194019   L 6.16626,107.50975   L 0,107.52   L 0,77.41522  z "
     id="path4" />
  <path
     style="fill:#373435;fill-rule:evenodd;fill-opacity:1;stroke:none;"
     d="  M 30.58506,77.394713   L 31.22118,77.41522   L 31.84704,77.476742   L 32.4729,77.569025   L 33.07824,77.702323   L 33.68358,77.866382   L 34.2684,78.071455   L 34.85322,78.30729   L 35.41752,78.573885   L 35.9613,78.881495   L 36.49482,79.209613   L 37.01808,79.578745   L 37.52082,79.968385   L 38.0133,80.388785   L 38.475,80.829693   L 38.92644,81.311615   L 39.35736,81.803792   L 39.76776,82.326729   L 40.15764,82.880427   L 40.527,83.444379   L 40.87584,84.039092   L 41.1939,84.644059   L 41.49144,85.279786   L 41.76846,85.925768   L 42.0147,86.592256   L 42.24042,87.279252   L 42.43536,87.976502   L 42.59952,88.694259   L 42.74316,89.42227   L 42.85602,90.160534   L 42.92784,90.919306   L 42.97914,91.678077   L 42.99966,92.457356   L 42.97914,93.236636   L 42.92784,93.995407   L 42.85602,94.754179   L 42.74316,95.492443   L 42.59952,96.220454   L 42.43536,96.938211   L 42.24042,97.635461   L 42.0147,98.322457   L 41.76846,98.988945   L 41.49144,99.634927   L 41.1939,100.27065   L 40.87584,100.87562   L 40.527,101.47033   L 40.15764,102.03429   L 39.76776,102.58798   L 39.35736,103.11092   L 38.92644,103.6031   L 38.475,104.08502   L 38.0133,104.52593   L 37.52082,104.94633   L 37.01808,105.33597   L 36.49482,105.7051   L 35.9613,106.03322   L 35.41752,106.34083   L 34.85322,106.60742   L 34.2684,106.84326   L 33.68358,107.04833   L 33.07824,107.21239   L 32.4729,107.34569   L 31.84704,107.43797   L 31.22118,107.49949   L 30.58506,107.52   L 29.93868,107.49949   L 29.31282,107.43797   L 28.68696,107.34569   L 28.08162,107.21239   L 27.47628,107.04833   L 26.89146,106.84326   L 26.3169,106.60742   L 25.7526,106.34083   L 25.19856,106.03322   L 24.66504,105.7051   L 24.14178,105.33597   L 23.63904,104.94633   L 23.15682,104.52593   L 22.68486,104.08502   L 22.23342,103.6031   L 21.8025,103.11092   L 21.3921,102.58798   L 21.00222,102.03429   L 20.63286,101.47033   L 20.28402,100.87562   L 19.96596,100.27065   L 19.66842,99.634927   L 19.3914,98.988945   L 19.14516,98.322457   L 18.91944,97.635461   L 18.7245,96.938211   L 18.56034,96.220454   L 18.4167,95.492443   L 18.3141,94.754179   L 18.23202,93.995407   L 18.18072,93.236636   L 18.17046,92.457356   L 18.18072,91.678077   L 18.23202,90.919306   L 18.3141,90.160534   L 18.4167,89.42227   L 18.56034,88.694259   L 18.7245,87.976502   L 18.91944,87.279252   L 19.14516,86.592256   L 19.3914,85.925768   L 19.66842,85.279786   L 19.96596,84.644059   L 20.28402,84.039092   L 20.63286,83.444379   L 21.00222,82.880427   L 21.3921,82.326729   L 21.8025,81.803792   L 22.23342,81.311615   L 22.68486,80.829693   L 23.15682,80.388785   L 23.63904,79.968385   L 24.14178,79.578745   L 24.66504,79.209613   L 25.19856,78.881495   L 25.7526,78.573885   L 26.3169,78.30729   L 26.89146,78.071455   L 27.47628,77.866382   L 28.08162,77.702323   L 28.68696,77.569025   L 29.31282,77.476742   L 29.93868,77.41522   L 30.58506,77.394713  z    M 30.58506,83.157276   L 30.97494,83.16753   L 31.36482,83.198291   L 31.74444,83.259813   L 32.1138,83.341842   L 32.4729,83.444379   L 32.832,83.577677   L 33.18084,83.721228   L 33.50916,83.885287   L 33.83748,84.069853   L 34.15554,84.274927   L 34.46334,84.500507   L 34.76088,84.746595   L 35.04816,85.002937   L 35.32518,85.279786   L 35.58168,85.566889   L 35.83818,85.874499   L 36.07416,86.202617   L 36.29988,86.540988   L 36.51534,86.889613   L 36.71028,87.258745   L 36.89496,87.638131   L 37.06938,88.02777   L 37.22328,88.427664   L 37.36692,88.83781   L 37.49004,89.258211   L 37.6029,89.688865   L 37.69524,90.129773   L 37.77732,90.580935   L 37.83888,91.04235   L 37.87992,91.503765   L 37.9107,91.975434   L 37.9107,92.457356   L 37.9107,92.939279   L 37.87992,93.410948   L 37.83888,93.872363   L 37.77732,94.333778   L 37.69524,94.78494   L 37.6029,95.225848   L 37.49004,95.656502   L 37.36692,96.076903   L 37.22328,96.487049   L 37.06938,96.886943   L 36.89496,97.276582   L 36.71028,97.655968   L 36.51534,98.0251   L 36.29988,98.373725   L 36.07416,98.712096   L 35.83818,99.040214   L 35.58168,99.347824   L 35.32518,99.634927   L 35.04816,99.911776   L 34.76088,100.16812   L 34.46334,100.41421   L 34.15554,100.63979   L 33.83748,100.84486   L 33.50916,101.02943   L 33.18084,101.19348   L 32.832,101.34729   L 32.4729,101.47033   L 32.1138,101.57287   L 31.74444,101.6549   L 31.36482,101.71642   L 30.97494,101.74718   L 30.58506,101.75744   L 30.18492,101.74718   L 29.8053,101.71642   L 29.42568,101.6549   L 29.05632,101.57287   L 28.69722,101.47033   L 28.34838,101.34729   L 28.0098,101.19348   L 27.67122,101.02943   L 27.35316,100.84486   L 27.04536,100.63979   L 26.73756,100.41421   L 26.45028,100.16812   L 26.17326,99.911776   L 25.9065,99.634927   L 25.65,99.347824   L 25.41402,99.040214   L 25.17804,98.712096   L 24.96258,98.373725   L 24.75738,98.0251   L 24.56244,97.655968   L 24.38802,97.276582   L 24.22386,96.886943   L 24.06996,96.487049   L 23.93658,96.076903   L 23.81346,95.656502   L 23.71086,95.225848   L 23.61852,94.78494   L 23.5467,94.333778   L 23.48514,93.872363   L 23.4441,93.410948   L 23.42358,92.939279   L 23.41332,92.457356   L 23.42358,91.975434   L 23.4441,91.503765   L 23.48514,91.04235   L 23.5467,90.580935   L 23.61852,90.129773   L 23.71086,89.688865   L 23.81346,89.258211   L 23.93658,88.83781   L 24.06996,88.427664   L 24.22386,88.02777   L 24.38802,87.638131   L 24.56244,87.258745   L 24.75738,86.889613   L 24.96258,86.540988   L 25.17804,86.202617   L 25.41402,85.874499   L 25.65,85.566889   L 25.9065,85.279786   L 26.17326,85.002937   L 26.45028,84.746595   L 26.73756,84.500507   L 27.04536,84.274927   L 27.35316,84.069853   L 27.67122,83.885287   L 28.0098,83.721228   L 28.34838,83.577677   L 28.69722,83.444379   L 29.05632,83.341842   L 29.42568,83.259813   L 29.8053,83.198291   L 30.18492,83.16753   L 30.58506,83.157276  z   "
     id="path5" />
  <path
     style="fill:#373435;fill-rule:evenodd;fill-opacity:1;stroke:none;"
     d="  M 96.21828,92.447103   L 96.19776,93.226382   L 96.14646,93.985154   L 96.07464,94.743925   L 95.96178,95.48219   L 95.8284,96.2102   L 95.65398,96.927957   L 95.45904,97.625207   L 95.24358,98.312203   L 94.98708,98.978692   L 94.72032,99.624673   L 94.42278,100.2604   L 94.09446,100.86537   L 93.74562,101.46008   L 93.37626,102.02403   L 92.98638,102.57773   L 92.57598,103.10067   L 92.14506,103.59284   L 91.69362,104.06451   L 91.23192,104.51567   L 90.73944,104.93607   L 90.2367,105.32571   L 89.7237,105.69485   L 89.17992,106.02296   L 88.63614,106.32032   L 88.07184,106.59717   L 87.49728,106.833   L 86.9022,107.03808   L 86.30712,107.20214   L 85.69152,107.33543   L 85.07592,107.42772   L 84.4398,107.48924   L 83.80368,107.50975   L 83.16756,107.48924   L 82.53144,107.42772   L 81.91584,107.33543   L 81.30024,107.20214   L 80.6949,107.03808   L 80.11008,106.833   L 79.53552,106.59717   L 78.97122,106.32032   L 78.41718,106.02296   L 77.88366,105.69485   L 77.3604,105.32571   L 76.85766,104.93607   L 76.37544,104.51567   L 75.90348,104.06451   L 75.45204,103.59284   L 75.02112,103.10067   L 74.61072,102.57773   L 74.22084,102.02403   L 73.85148,101.46008   L 73.5129,100.86537   L 73.18458,100.2604   L 72.88704,99.624673   L 72.61002,98.978692   L 72.36378,98.312203   L 72.13806,97.625207   L 71.94312,96.927957   L 71.77896,96.2102   L 71.63532,95.48219   L 71.53272,94.743925   L 71.45064,93.985154   L 71.39934,93.226382   L 71.38908,92.447103   L 71.39934,91.667824   L 71.45064,90.909052   L 71.53272,90.15028   L 71.63532,89.412016   L 71.77896,88.684005   L 71.94312,87.966248   L 72.13806,87.268999   L 72.36378,86.582003   L 72.61002,85.915514   L 72.88704,85.269533   L 73.18458,84.633805   L 73.5129,84.028838   L 73.85148,83.434126   L 74.22084,82.870174   L 74.61072,82.316475   L 75.02112,81.793538   L 75.45204,81.301362   L 75.90348,80.829693   L 76.37544,80.378531   L 76.85766,79.958131   L 77.3604,79.568491   L 77.88366,79.199359   L 78.41718,78.871242   L 78.97122,78.573885   L 79.53552,78.297036   L 80.11008,78.061202   L 80.6949,77.856128   L 81.30024,77.692069   L 81.91584,77.558772   L 82.53144,77.466489   L 83.16756,77.404967   L 83.80368,77.384459   L 84.132,77.394713   L 84.47058,77.404967   L 84.7989,77.435728   L 85.12722,77.466489   L 85.44528,77.517757   L 85.7736,77.579279   L 86.09166,77.640801   L 86.40972,77.72283   L 86.71752,77.80486   L 87.03558,77.897143   L 87.34338,78.009933   L 87.64092,78.122724   L 87.94872,78.245768   L 88.24626,78.379065   L 88.53354,78.522617   L 88.83108,78.666168   L 89.1081,78.830227   L 89.39538,78.994286   L 89.6724,79.178852   L 89.94942,79.353164   L 90.21618,79.547984   L 90.48294,79.753057   L 90.73944,79.958131   L 90.99594,80.173458   L 91.25244,80.399039   L 91.49868,80.624619   L 91.73466,80.860454   L 91.97064,81.106542   L 92.20662,81.362884   L 92.43234,81.619226   L 92.6478,81.885821   L 92.86326,82.16267   L 89.0055,85.802724   L 88.749,85.505367   L 88.4925,85.218264   L 88.21548,84.941415   L 87.93846,84.695327   L 87.64092,84.459493   L 87.33312,84.233912   L 87.17922,84.131375   L 87.02532,84.039092   L 86.86116,83.946809   L 86.697,83.854526   L 86.53284,83.772497   L 86.36868,83.690467   L 86.19426,83.618692   L 86.01984,83.55717   L 85.84542,83.485394   L 85.671,83.434126   L 85.49658,83.372603   L 85.3119,83.331589   L 85.12722,83.290574   L 84.94254,83.249559   L 84.75786,83.218798   L 84.57318,83.188037   L 84.37824,83.16753   L 84.19356,83.157276   L 83.99862,83.147023   L 83.80368,83.147023   L 83.40354,83.157276   L 83.02392,83.198291   L 82.6443,83.249559   L 82.27494,83.331589   L 81.91584,83.434126   L 81.567,83.567423   L 81.22842,83.710975   L 80.9001,83.875033   L 80.57178,84.059599   L 80.26398,84.264673   L 79.96644,84.490254   L 79.6689,84.736342   L 79.39188,84.992684   L 79.12512,85.269533   L 78.86862,85.556636   L 78.63264,85.874499   L 78.39666,86.192363   L 78.1812,86.530734   L 77.976,86.879359   L 77.78106,87.248491   L 77.60664,87.627877   L 77.44248,88.017517   L 77.29884,88.41741   L 77.1552,88.827557   L 77.04234,89.247957   L 76.92948,89.678611   L 76.8474,90.119519   L 76.76532,90.570681   L 76.71402,91.032096   L 76.67298,91.493511   L 76.6422,91.96518   L 76.63194,92.447103   L 76.6422,92.929025   L 76.66272,93.400694   L 76.70376,93.872363   L 76.76532,94.344032   L 76.82688,94.805447   L 76.91922,95.266862   L 77.02182,95.70777   L 77.13468,96.148678   L 77.26806,96.579332   L 77.4117,96.999733   L 77.57586,97.40988   L 77.75028,97.809773   L 77.94522,98.199413   L 78.15042,98.568545   L 78.37614,98.927423   L 78.61212,99.265794   L 78.85836,99.593912   L 79.12512,99.911776   L 79.40214,100.20913   L 79.68942,100.48598   L 79.99722,100.74232   L 80.31528,100.97816   L 80.65386,101.19348   L 81.0027,101.3883   L 81.3618,101.56262   L 81.73116,101.71642   L 82.12104,101.83947   L 82.52118,101.942   L 82.94184,102.01378   L 83.3625,102.06505   L 83.80368,102.08555   L 84.25512,102.08555   L 84.47058,102.0753   L 84.68604,102.04454   L 84.89124,102.01378   L 85.08618,101.97276   L 85.28112,101.9215   L 85.47606,101.87023   L 85.66074,101.8087   L 85.83516,101.73693   L 86.00958,101.6549   L 86.17374,101.57287   L 86.3379,101.48059   L 86.4918,101.37805   L 86.63544,101.27551   L 86.77908,101.17298   L 86.91246,101.06019   L 87.03558,100.93714   L 87.1587,100.8141   L 87.27156,100.69105   L 87.37416,100.55776   L 87.47676,100.42446   L 87.5691,100.29116   L 87.65118,100.15786   L 87.723,100.01431   L 87.79482,99.870761   L 87.84612,99.72721   L 87.89742,99.583658   L 87.93846,99.440107   L 87.9795,99.286302   L 88.00002,99.14275   L 88.01028,98.999199   L 88.02054,98.845394   L 88.02054,98.701842   L 82.21338,98.64032   L 82.11078,92.508625   L 96.21828,92.447103  z "
     id="path6" />
  <path
     style="fill:#373435;fill-rule:evenodd;fill-opacity:1;stroke:none;"
     d="  M 45.0414,77.333191   L 45.05166,107.50975   L 51.12558,107.50975   L 51.12558,91.985688   L 68.95746,107.50975   L 68.90616,77.394713   L 62.06274,77.394713   L 62.00118,93.482724   L 45.0414,77.333191  z "
     id="path7" />
  <path
     style="fill:#373435;fill-rule:evenodd;fill-opacity:1;stroke:none;"
     d="  M 99.19368,77.394713   L 99.02952,107.50975   L 105.03162,107.50975   L 105.03162,99.235033   L 113.55768,107.50975   L 122.34024,107.50975   L 113.19858,98.978692   L 114.49134,99.070975   L 115.70202,99.040214   L 116.83062,98.886409   L 117.85662,98.619813   L 118.8108,98.250681   L 119.66238,97.779012   L 120.44214,97.225314   L 121.13982,96.589586   L 121.75542,95.882083   L 122.28894,95.102804   L 122.74038,94.272256   L 123.12,93.390441   L 123.4278,92.46761   L 123.65352,91.514019   L 123.80742,90.529666   L 123.89976,89.53506   L 123.91002,88.519947   L 123.85872,87.504833   L 123.74586,86.499973   L 123.56118,85.495113   L 123.31494,84.521015   L 122.99688,83.577677   L 122.62752,82.6651   L 122.1966,81.803792   L 121.70412,80.983498   L 121.16034,80.23498   L 120.555,79.547984   L 119.89836,78.932764   L 119.19042,78.399573   L 118.42092,77.968919   L 117.61038,77.630547   L 116.74854,77.394713   L 99.19368,77.394713  z    M 105.03162,84.408224   L 105.1137,92.406088   L 115.94826,92.406088   L 116.0919,92.242029   L 116.23554,92.067717   L 116.36892,91.872897   L 116.5023,91.667824   L 116.62542,91.442243   L 116.73828,91.206409   L 116.84088,90.96032   L 116.93322,90.703979   L 117.02556,90.42713   L 117.09738,90.15028   L 117.1692,89.863178   L 117.23076,89.576075   L 117.28206,89.278718   L 117.31284,88.981362   L 117.34362,88.684005   L 117.36414,88.376395   L 117.36414,88.079039   L 117.36414,87.771429   L 117.34362,87.474072   L 117.31284,87.186969   L 117.26154,86.889613   L 117.21024,86.612764   L 117.13842,86.335915   L 117.05634,86.069319   L 116.95374,85.812977   L 116.85114,85.566889   L 116.71776,85.341308   L 116.58438,85.115728   L 116.42022,84.920908   L 116.25606,84.726088   L 116.06112,84.562029   L 115.86618,84.408224   L 105.03162,84.408224  z   "
     id="path8" />
  <path
     style="fill:#373435;fill-rule:evenodd;fill-opacity:1;stroke:none;"
     d="  M 125.2746,107.50975   L 125.02836,77.374206   L 153.19206,107.50975   L 133.19532,107.50975   L 133.19532,102.39316   L 138.94092,102.39316   L 131.0202,93.657036   L 131.11254,107.50975   L 125.2746,107.50975  z "
     id="path9" />
  <path
     style="fill:#373435;fill-rule:evenodd;fill-opacity:1;stroke:none;"
     d="  M 140.11056,90.73474   L 140.11056,77.394713   L 152.33022,77.394713   L 153.76662,77.651055   L 155.10042,78.030441   L 156.34188,78.512363   L 157.48074,79.096822   L 158.52726,79.773565   L 159.48144,80.54259   L 160.34328,81.393645   L 161.11278,82.316475   L 161.78994,83.311081   L 162.38502,84.356956   L 162.88776,85.454099   L 163.30842,86.60251   L 163.63674,87.781682   L 163.89324,88.991615   L 164.0574,90.222056   L 164.14974,91.473004   L 164.14974,92.723952   L 164.08818,93.985154   L 163.93428,95.225848   L 163.71882,96.466542   L 163.42128,97.676475   L 163.05192,98.855648   L 162.61074,100.00406   L 162.09774,101.11146   L 161.52318,102.16758   L 160.8768,103.16219   L 160.1586,104.09527   L 159.3891,104.94633   L 158.54778,105.72561   L 157.6449,106.42286   L 156.68046,107.01757   L 155.65446,107.50975   L 152.1045,103.48005   L 152.874,103.15194   L 153.58194,102.7623   L 154.24884,102.32139   L 154.85418,101.81896   L 155.40822,101.27551   L 155.9007,100.6808   L 156.35214,100.04507   L 156.75228,99.378585   L 157.10112,98.681335   L 157.39866,97.963578   L 157.6449,97.21506   L 157.83984,96.456288   L 157.99374,95.677009   L 158.09634,94.887477   L 158.14764,94.108198   L 158.1579,93.318665   L 158.11686,92.529132   L 158.03478,91.760107   L 157.9014,90.991081   L 157.71672,90.252817   L 157.50126,89.524806   L 157.2345,88.83781   L 156.9267,88.171322   L 156.57786,87.545848   L 156.17772,86.951135   L 155.7468,86.40769   L 155.26458,85.915514   L 154.74132,85.474606   L 154.18728,85.084967   L 153.58194,84.767103   L 152.94582,84.510761   L 152.26866,84.326195   L 146.18448,84.244166   L 146.27682,96.815167   L 140.11056,90.73474  z "
     id="path10" />
</svg>
