<svg style="max-height: 500px" viewBox="125.25388601036269 72.864 226.72538860103626 234.432" version="1.1" xmlns="http://www.w3.org/2000/svg" width="226.72538860103626" height="234.432">
  <g>
    <path fill-rule="evenodd" fill="#002645" d="M162.0255 535.2525C160.8109 533.8344 157.1321 530.8376 156.522 529.4733L159.9313 525.7559C160.431 525.1711 162.3611 523.7949 163.7787 522.1667L169.4293 516.9124C172.874 514.1619 176.1962 511.4194 179.9566 509.0669 182.9942 507.1666 185.9434 505.1438 189.3203 503.5399 196.4279 500.1644 202.2117 497.2586 210.2034 495.1559 228.2343 490.4118 243.8583 489.4835 262.3952 493.1189 279.5882 496.4907 294.3071 503.8929 307.6974 514.065 308.0506 514.3331 308.2805 514.5528 308.6433 514.8496L312.679 518.2699C314.0923 519.8017 314.1924 519.6512 315.6741 520.9753 317.0798 522.2313 317.9645 523.512 319.3209 524.8335L313.863 530.5351 318.7259 535.5417C320.9445 537.683 320.5497 537.5906 322.2326 539.4787 322.5728 539.8603 322.5197 539.7259 322.8307 540.106 323.0609 540.3875 323.1366 540.5522 323.358 540.8362 326.5143 544.8835 328.9371 547.8248 331.7029 552.5813 342.9731 571.9657 348.8715 593.3923 346.6035 616.6202 344.5418 637.736 338.4309 654.7487 326.5055 671.2495 324.3589 674.2193 321.2524 677.5758 319.7446 679.6301 319.1431 680.4496 319.2993 680.1778 318.4968 680.8507L309.7049 689.423C309.3999 689.6571 309.2751 689.6917 308.9718 689.9494L304.0189 693.9207C277.9021 713.0211 243.036 720.2333 209.3581 710.6508 197.0172 707.1392 181.4964 699.1033 172.0106 690.6804L158.2713 676.8859C153.6491 671.9808 147.6836 661.9022 144.4085 655.7655 139.746 647.0291 136.6404 636.3632 134.7684 625.4867 132.6813 613.3595 133.1711 600.7643 135.2534 588.6564 138.4858 569.863 146.2595 554.8416 157.3308 540.7807Z" transform="matrix(1,0,0,-1,0,792)"/>
    <path fill-rule="evenodd" fill="#030609" d="M189.8243 542.9466C193.4464 539.0626 204.5911 539.6706 209.4576 540.3504 212.1148 540.7214 210.5629 541.4533 212.8028 541.2617 214.1289 541.148 217.8431 540.4878 218.6762 540.9272L207.989 541.9222C209.2958 543.2737 208.8315 542.2275 210.6468 544.6378 211.5363 545.8192 211.8498 546.2932 212.33 547.9146 213.821 552.9504 211.8353 554.4995 211.5768 556.2519 217.8802 556.1314 219.5745 558.5 222.3975 560.9061 223.2527 561.6354 223.6354 562.8161 224.7395 563.5743 226.9885 563.2089 228.8503 561.2238 229.6877 559.5423 230.5559 557.7985 231.192 554.1568 229.7707 552.5532 229.4544 552.1961 228.973 551.9628 228.545 551.5407 225.8983 548.9314 223.9302 544.4206 225.2364 540.4578 225.4516 539.1357 226.2974 537.9506 227.0659 536.8258 227.6887 535.9141 229.1587 535.155 230.2645 534.5804 235.8967 531.6537 241.2513 533.4009 244.3414 533.2637 246.0611 533.1869 247.5275 533.0211 249.2867 532.944 251.4523 532.8496 258.3428 532.0162 259.6428 533.5163 259.3188 534.1133 259.9036 533.9169 257.7566 534.7684 255.6592 535.6006 252.3302 536.2832 250.1935 536.0491 251.1037 537.5543 250.8746 536.7915 250.9503 536.8476L252.2889 537.7113C252.3319 537.7414 252.3932 537.7825 252.4368 537.8125L253.023 538.2238C253.1109 538.2887 253.4122 538.5195 253.4474 538.547 254.3034 539.223 255.7655 540.5386 256.011 541.4533 257.8212 540.4589 256.8231 539.9427 259.1821 537.9321L263.0251 534.3418C270.8773 528.9401 281.2351 529.4078 288.3084 534.6876L291.82 537.8726C292.8254 538.8046 292.9859 539.2902 293.9613 540.7177 294.3349 541.2648 294.429 541.3391 294.7229 541.9344 294.8448 542.181 294.9239 542.4097 295.0288 542.6175L295.4117 543.2658C297.4961 548.6536 298.2694 554.4964 295.8415 560.2173 294.7266 562.8436 293.5284 565.0296 291.9379 566.7327 290.1855 568.6089 289.0947 569.9752 286.5781 571.5383 282.1547 574.2856 275.8822 575.6922 269.8724 573.9644 262.8632 571.9487 261.2381 569.0843 257.7331 565.4682 257.2064 565.7661 256.7361 566.0416 256.3058 566.5096L254.2221 567 243.7532 571.0623 247.4235 580.5374H247.424C247.5575 581.1763 247.6712 581.8365 247.7424 582.6555 247.8784 584.2239 247.5468 585.976 247.9212 587.4752 249.4412 587.5991 256.4666 582.9809 267.2419 586.0321 269.8339 586.7663 271.3819 587.7332 272.6175 588.1218 274.8481 586.8737 276.3003 586.1035 279.5522 586.6109 281.9098 586.9786 283.6307 588.1683 284.1381 590.1571 289.9726 589.7208 293.6324 595.5429 292.3702 599.1797 291.8679 600.6274 291.7247 599.7713 292.3673 601.3208 292.7344 602.2049 292.8827 602.934 292.8458 603.9748 292.7109 607.7829 290.6022 608.6869 289.3465 609.5217 288.091 610.3562 287.5904 615.8171 279.5814 613.8692 278.062 613.4995 276.4131 612.7223 275.4621 612.0351 274.2551 611.1635 274.9431 611.6499 273.3364 611.1808 272.5506 610.9517 271.9449 610.5569 271.4 610.1512 266.0173 606.1363 268.7003 602.5876 266.008 600.8953 261.199 597.8718 254.5999 598.2389 249.9956 601.2397L250.7017 601.831C250.8968 601.9693 251.1493 602.1221 251.479 602.2973 252.021 602.5847 252.4133 602.7562 252.9666 603.0323 254.0327 603.5638 255.024 603.9147 256.0334 604.4394 269.6397 611.5113 267.0347 616.6667 269.3999 618.3547 271.4284 619.8029 272.5622 620.5374 273.8358 623.0701 276.1209 627.6149 275.3084 632.9704 270.5613 635.6616 267.2206 637.5563 266.5429 636.6501 262.942 636.4307 262.4564 637.9863 261.9179 638.3557 261.1542 639.4428L262.4117 639.8569C261.6775 642.8472 258.2286 642.528 255.8225 643.9731 253.112 645.6013 252.089 647.0172 248.1364 646.1702 247.7322 645.4188 246.4821 644.9791 247.4104 643.985 248.3337 643.2744 249.6141 644.7163 251.9586 643.5975 256.7265 641.3221 257.2413 639.8342 258.8638 638.5842 259.6314 637.9929 260.93 636.2405 261.286 635.2254L258.4772 633.1842 258.0783 634.343C256.9232 638.1334 253.1356 641.4684 249.6934 640.2898 248.1732 639.7693 247.947 638.7361 247.3943 637.2266 246.5816 637.8344 246.74 638.3069 245.7371 639.3515 243.3155 641.8738 238.4719 642.8503 235.7921 640.3014 232.8962 637.5458 233.7525 630.2801 237.6853 626.3382 238.4538 625.568 238.5326 625.2545 239.6724 624.6159 242.1547 623.226 245.7207 622.4496 248.3609 624.0186L252.5488 626.4913C249.1211 626.5587 247.2619 622.1027 241.8313 624.7638 233.8115 628.6929 233.1635 641.2929 240.3621 640.6926 242.0921 640.548 244.2711 639.466 245.2385 638.6134 248.2495 635.959 246.6782 635.3974 248.1576 634.7273 248.4405 636.6679 248.4624 638.5995 250.3933 639.1032 253.4173 639.8921 257.6095 635.5366 257.9272 633.4067 258.1384 631.9916 256.248 630.1826 255.5039 629.5198 255.3384 630.6318 255.092 631.5372 254.3723 632.1132 251.2208 634.638 249.7198 627.9392 253.1421 627.1081 253.7099 626.8107 253.1863 627.3507 253.5693 626.6993 252.8991 626.2699 252.4677 625.2778 252.4232 624.2309 253.4675 623.9945 253.4122 624.5541 253.8836 625.1862 254.5098 626.0267 254.4693 625.5706 255.1246 626.4068 255.704 627.1464 255.5997 627.3901 256.3194 627.9625 258.4964 629.6919 259.2867 631.7813 263.1566 633.7922 266.2444 635.3966 268.9855 634.3245 270.6735 632.5311 273.5368 629.4895 272.6524 624.9504 270.0896 622.3799L266.4218 619.577C259.6867 615.9351 254.2822 619.3922 254.1583 618.1135 254.0815 617.3135 256.072 616.5961 257.1857 616.32 261.9099 615.1484 263.8814 616.6287 266.1327 616.968 264.9277 613.6152 263.7969 613.2603 262.4261 611.6769 260.5745 609.5381 261.5664 610.7922 260.0739 609.5582 256.4082 606.528 250.0997 603.6792 245.2048 602.8367 238.2653 601.6425 230.3317 602.9649 224.2259 606.6626 220.2267 609.0851 221.0085 610.3332 219.9858 610.7961 219.0807 610.3706 219.7154 610.1685 218.9392 609.512 218.6549 609.2717 217.9794 609.0866 217.4978 608.9502 210.2026 606.8866 200.8576 609.9729 198.8399 618.0143 197.5436 623.1804 200.7533 626.2591 205.4942 627.4213 208.0318 628.0438 210.3177 627.5021 212.6027 626.5794 216.0454 625.1896 216.4907 624.073 218.0891 623.7686 219.2666 626.5556 217.7283 625.5632 216.5726 627.287L217.2302 628.5912C217.5214 629.0331 217.6594 629.2888 217.8924 629.6669 218.3366 630.3881 218.9078 630.951 219.5246 631.7461L222.9106 635.815C224.0725 637.2567 224.7687 637.1668 225.9269 638.5119 227.1104 639.8864 230.3337 641.0072 230.6438 643.0144L229.5958 642.8772C226.8836 642.1737 222.5231 638.062 220.9201 636.5622 219.7933 635.5077 218.4182 633.9484 217.4094 632.6257L214.3208 628.2865C207.0754 631.815 202.1298 627.7482 200.4287 627.3071 199.3635 629.2834 199.2835 634.8183 199.4777 637.2079 200.3168 647.5439 207.2741 658.946 214.2856 665.2704 214.8562 665.7851 215.2094 666.0292 215.7925 666.5091 216.415 667.0216 216.5406 667.3252 217.1914 667.8224 222.4386 671.8306 227.5271 675.2625 235.0993 676.4587 244.4576 677.937 253.0996 675.3073 260.4475 670.4374 266.0298 666.7373 268.564 660.668 263.2275 657.7569 257.7892 654.7895 244.074 657.1069 237.6918 658.853 235.5389 659.442 235.8601 658.7677 235.7529 658.6475 233.9677 656.6397 240.622 655.3701 241.7014 655.1759 249.1129 653.8428 248.5766 654.9979 247.7367 652.1666 247.4609 652.178 223.9872 655.3086 227.592 651.4792 228.4191 650.4222 232.429 651.1056 233.9184 651.109 239.9471 651.1243 245.3754 650.4126 251.2037 649.0344 269.4416 644.7212 263.5549 639.701 263.4208 637.2048 268.9345 638.4283 267.6081 644.7747 262.2149 647.6556 253.6583 652.2256 249.319 649.9247 250.4265 653.944 254.461 654.0962 257.866 653.2013 262.0395 654.4862 265.0136 655.4018 267.7266 657.5967 268.672 660.2445 270.923 666.5508 263.5642 672.51 259.1742 674.6216 252.7625 677.7065 247.6613 679.854 239.1211 679.6213 231.6234 679.4167 225.3214 676.5772 220.4802 673.4599 211.9195 667.9485 202.576 657.7373 198.3756 645.7249 196.543 640.4825 195.6444 632.2082 197.5459 626.8677 197.9476 625.7384 198.3234 625.7724 197.8968 624.8741 197.0277 623.0435 196.5359 622.7785 196.4438 620.1026 196.1504 611.5989 201.8384 609.9018 203.3833 608.5301 197.4915 608.0352 193.1729 606.0436 189.2931 602.6961 188.0929 601.6606 188.0884 602.1397 186.3867 601.6371 180.2531 599.8272 174.6471 591.3193 181.1928 584.9836 182.2173 583.9917 181.9925 583.7769 182.73 582.5554 183.9489 580.5369 184.9246 580.3909 187.7769 579.8775 188.3843 579.0512 188.2772 578.8576 188.9983 578.1487 191.6966 575.4974 195.9364 575.1938 199.2433 577.6135 200.4792 578.5177 201.0373 579.4466 200.81 581.639 204.2946 581.593 206.7446 583.6674 207.3702 587.1027 208.4471 593.0147 204.5058 593.9875 203.7787 595.1117 206.6306 595.5701 208.387 596.0996 211.5921 596.0849 212.9511 596.0786 214.2111 595.98 215.5496 595.7779 216.163 595.6855 216.7781 595.5707 217.4 595.4003L218.4993 594.9873C218.5384 594.968 218.6408 594.8391 218.6691 594.8901 218.6974 594.9414 218.7845 594.826 218.8395 594.79 217.5846 591.7808 212.6792 587.6206 210.6434 583.8216 208.8437 580.464 209.1702 576.0564 210.8659 572.4836 211.4833 571.1822 212.2333 570.6556 212.5908 569.3596 210.1431 568.2039 208.3586 567.1372 207.1417 565.0044 205.0963 561.4203 208.3187 558.4785 208.724 557.8234 206.6973 557.7885 205.3644 558.1154 203.5556 558.7234 202.4087 559.1092 197.9963 561.6581 199.7612 559.1843 201.2289 557.1275 208.2129 556.1674 208.6608 555.9041 209.7794 555.2461 210.6689 552.5697 210.4438 550.6231 208.9182 537.4114 183.9557 539.5439 187.0415 558.059 187.7077 562.0578 189.381 564.8944 191.1779 567.576 195.4653 573.9738 205.7204 577.709 207.845 570.7551 206.0178 570.6853 204.478 570.2987 203.5083 569.3842 202.983 568.8893 201.6587 567.0397 201.8044 565.9019 202.627 565.8548 202.9334 566.4898 203.3929 567.0153 206.2103 570.2426 208.391 568.0196 209.3406 567.7886 210.9101 569.7635 209.7116 573.1798 208.2603 574.5883 200.9279 581.7047 184.9978 570.8123 184.2775 556.1008 183.998 550.3921 186.6039 544.6695 189.8243 542.9466" transform="matrix(1,0,0,-1,0,792)"/>
    <path fill-rule="evenodd" fill="#085e8b" d="M231.2036 643.21C230.4326 643.1683 230.1276 643.2939 229.5958 642.8775L230.6438 643.0147C230.334 641.0072 227.1107 639.8864 225.9272 638.5122 224.769 637.1668 224.0728 637.2564 222.9103 635.8153L219.5246 631.7461C218.9081 630.951 218.3366 630.3878 217.8924 629.6672 217.6594 629.2885 217.5216 629.0331 217.23 628.5909L216.5729 627.2872C217.7283 625.5632 219.2664 626.5559 218.0894 623.7686 216.491 624.0728 216.0451 625.1899 212.6027 626.5797 210.3174 627.5021 208.0315 628.0435 205.494 627.4213 200.7533 626.2588 197.5436 623.1801 198.8399 618.0143 200.8573 609.9729 210.2026 606.8866 217.4981 608.9502 217.9794 609.0863 218.6549 609.2717 218.9392 609.512 219.7157 610.1688 219.0807 610.3706 219.9858 610.7958 221.0088 610.3329 220.2265 609.0851 224.2259 606.6629 230.3314 602.9649 238.2653 601.6425 245.2048 602.837 250.0994 603.6795 256.4082 606.528 260.0739 609.5582 261.5666 610.7922 260.5745 609.5381 262.4261 611.6769 263.7972 613.2603 264.928 613.6155 266.1327 616.968 263.8817 616.629 261.9099 615.1484 257.1857 616.3197 256.072 616.5961 254.0812 617.3135 254.1586 618.1135 254.2822 619.3922 259.687 615.9353 266.4218 619.5767L270.0896 622.3802C272.6524 624.9504 273.5365 629.4895 270.6732 632.5313 268.9852 634.3248 266.2447 635.3966 263.1563 633.7922 259.2865 631.7816 258.4962 629.6916 256.3194 627.9622 255.5994 627.3901 255.7043 627.1464 255.1246 626.4068 254.4695 625.5706 254.5101 626.0267 253.8836 625.1862 253.4122 624.5541 253.4675 623.9945 252.4232 624.2309 252.468 625.2775 252.8991 626.2702 253.5693 626.6991 253.1863 627.3507 253.7099 626.811 253.1421 627.1081 252.7906 626.6775 253.2283 626.934 252.5485 626.491L248.3612 624.0183C245.7207 622.4496 242.1547 623.2258 239.6724 624.6162 238.5323 625.2545 238.4538 625.5683 237.6853 626.3385 233.7525 630.2801 232.8959 637.5458 235.7923 640.3011 238.4719 642.8506 243.3155 641.8738 245.7371 639.3512 246.74 638.3066 246.5816 637.8344 247.3943 637.2266 247.9467 638.7361 248.1732 639.7693 249.6934 640.2898 253.1358 641.4681 256.9232 638.1337 258.0786 634.343L258.4774 633.1842 261.286 635.2254C260.93 636.2405 259.6314 637.9929 258.8638 638.5842 257.241 639.8342 256.7265 641.3221 251.9586 643.5975 249.6138 644.7163 248.3337 643.2746 247.4104 643.9847 246.4824 644.9788 247.7324 645.4188 248.1361 646.1702L240.3717 646.8622C242.572 642.7936 237.0078 648.798 234.2792 645.0344 233.4441 643.883 232.8868 641.3142 232.5373 640.0157L231.1656 640.2725Z" transform="matrix(1,0,0,-1,0,792)"/>
    <path fill-rule="evenodd" fill="#085e8b" d="M189.311 599.6038C188.388 599.6361 188.1499 601.2048 183.6561 597.4313 182.6904 596.6203 182.1781 596.1869 181.5797 595.0256 181.4111 594.6982 181.2495 594.3824 181.1001 594.0201 180.2086 591.8581 180.2633 588.4282 182.3238 587.2771 182.626 588.3038 182.7133 589.1136 183.3117 589.6998 185.8405 588.8086 181.0879 582.1472 187.7006 582.3369 187.8486 583.8083 188.5989 585.1108 189.1446 585.8875 192.9138 585.8184 185.8652 581.9117 192.1731 578.8281 195.9619 576.976 200.4109 579.7576 198.4442 582.717 197.346 582.1809 197.2395 581.0649 195.8264 581.7135 196.0033 582.5426 197.202 583.5044 198.0706 584.4852 198.8271 585.3396 199.9658 586.1322 201.4685 585.4992 201.1292 583.6938 200.3083 584.9323 200.0081 583.8072 199.6673 582.5299 199.9945 583.3114 200.1195 583.043 202.0133 582.5149 205.0495 584.5377 205.4517 588.2474 205.998 593.2837 202.2282 593.6494 200.6459 594.2937 200.6274 595.2005 200.5146 595.3439 202.3183 596.3672 207.4431 599.2741 216.6026 599.2747 221.7869 596.2827 222.789 595.7045 223.5603 595.2679 223.2006 593.8206 222.2912 593.441 221.9403 593.6899 221.0187 594.034L216.6029 587.8437C217.2056 586.9352 218.1943 585.4615 218.67 585.0043 220.7004 583.052 226.0803 581.0613 228.9555 580.3733 239.188 577.9244 243.2886 581.9516 245.5461 582.1393 245.0792 586.7371 246.2366 594.9802 242.3529 600.5557 239.1066 600.6098 237.2454 600.3187 234.0978 601.1858 231.9934 601.7655 229.415 603.0218 227.5611 603.3643 227.9336 602.9881 228.0889 602.8021 228.3372 602.2111 227.0937 602.2987 209.2088 610.5866 196.7406 604.692 194.2835 603.5304 192.7967 602.71 190.9789 601.0243 190.3209 600.4142 190.0519 600.3601 189.311 599.6038" transform="matrix(1,0,0,-1,0,792)"/>
    <path fill-rule="evenodd" fill="#eee7de" d="M233.0748 553.1406C232.2128 551.9565 232.5801 552.1184 231.3221 551.2397 230.6897 550.798 230.0777 549.9405 229.4802 549.3677 228.2584 548.1961 227.1866 546.3218 227.0095 544.1309 226.6396 539.5612 230.1707 536.9383 233.8495 535.9207 242.6916 533.4749 251.801 539.4773 255.136 543.9351 253.4204 549.2288 252.6582 553.3075 254.6416 559.182 255.1791 560.7743 255.9787 562.102 256.5057 563.5454 254.0546 564.5769 252.5111 565.3777 249.1999 564.6251 247.1097 564.15 244.6169 562.587 243.3648 561.524 241.2303 559.7124 239.6755 558.0561 237.9986 555.9701 237.454 555.2926 235.6591 552.3165 234.6752 553.0592 234.631 553.117 234.5803 553.2885 234.5706 553.2511L234.4258 553.6397C234.2908 555.0426 239.7779 560.694 240.2802 561.6422 242.4206 565.6836 236.323 570.7208 231.4329 571.9618 229.8163 572.3722 228.1297 571.989 228.1992 573.7037 229.621 575.1541 233.0374 573.8834 234.525 573.3139L238.1896 571.278C238.8781 570.7483 238.5859 570.7902 239.3759 570.4089L240.3465 571.2494C242.7188 573.3638 244.658 577.1735 244.8626 580.4813 243.6293 580.0499 242.9433 579.3307 241.4336 578.8466 237.2312 577.4984 232.3321 577.8312 228.1218 578.8273 225.487 579.4506 223.0756 580.3761 220.9014 581.5202 219.9966 581.9964 218.6762 583.0529 218.0974 583.685 217.671 584.1505 217.4306 584.4373 216.9414 585.0011 216.4289 585.5924 216.4516 585.9629 215.5612 586.3859 210.4356 583.1277 209.3956 571.8339 219.1419 568.1041 223.8449 566.3044 225.8014 567.0306 229.2114 563.5454 234.7968 557.8364 231.3853 556.151 233.0748 553.1406" transform="matrix(1,0,0,-1,0,792)"/>
    <path fill-rule="evenodd" fill="#eee7de" d="M183.9702 513.4133C184.9076 512.6638 188.0218 511.2187 189.0176 510.8105 189.5749 511.4795 191.3145 515.8769 191.7332 516.9027 192.1686 517.9691 193.9263 522.6194 194.4371 523.2841L196.92 508.3089 205.6209 515.1864C206.6426 515.986 207.5241 516.8483 208.6036 517.5315 207.5465 513.4411 204.9608 508.5859 204.1081 504.4765L209.5911 502.655 217.3748 524.6419C214.13 525.2202 210.8679 527.2277 209.8443 526.3534L202.5346 519.9894C201.6573 519.173 201.7057 519.0225 200.6799 518.3912L199.1962 531.0363 192.7188 534.0591Z" transform="matrix(1,0,0,-1,0,792)"/>
    <path fill-rule="evenodd" fill="#085e8b" d="M268.8965 596.5724C267.0792 597.4064 267.798 598.5711 266.7626 599.6123 265.9105 598.3288 263.778 597.5827 261.9584 597.0368 254.425 594.7767 248.3235 601.0611 244.3606 600.5251 245.6501 597.534 247.1533 593.7177 247.4005 590.1372 250.1708 589.5782 252.5627 587.2456 258.7252 587.2116 263.6734 587.1841 266.4995 588.4784 270.826 589.8104 270.6052 590.7005 270.1511 591.0968 270.661 591.5889 271.6622 592.5552 270.7971 590.601 274.7812 589.002 278.2726 587.6005 279.7322 588.6967 282.1105 589.9601L280.457 590.9729C278.5825 592.3193 278.4436 594.2151 278.8778 596.4191 277.3542 595.5052 274.4606 593.4651 272.1651 594.0717L272.5415 595.3997C273.4707 595.4964 273.695 595.2682 275.078 596.0265 275.711 596.3737 277.446 597.3741 277.7377 597.7667 276.0185 598.5703 275.4026 598.5456 274.3223 599.7172 273.4843 600.626 272.4797 602.2276 272.6393 603.7245 274.3676 603.8453 274.0263 602.5649 275.6086 601.0084 280.5018 596.1957 283.2673 604.7476 278.1374 608.2614 275.1831 610.2853 272.8542 608.6231 271.1052 606.9657 269.8679 605.7933 269.2721 603.7495 268.9509 601.9234 268.6306 600.1024 269.0836 597.2689 268.8965 596.5724" transform="matrix(1,0,0,-1,0,792)"/>
    <path fill-rule="evenodd" fill="#eee7de" d="M227.4653 706.9181 228.2525 685.959 233.4447 686.3924 233.1641 698.8428C233.1984 698.7883 233.2638 698.7767 233.2837 698.6795 233.3032 698.5834 233.382 698.5553 233.4081 698.5168L239.3759 687.2975 242.2244 687.1637C242.545 688.2973 247.14 696.9878 248.5998 698.8286L248.0771 686.3953 253.2713 686.0047 254.4293 706.898 246.8242 707.5247 240.8539 695.6042C240.5424 695.9801 235.3598 706.8827 235.222 707.4329 233.1113 707.3719 229.3441 707.4655 227.4653 706.9181" transform="matrix(1,0,0,-1,0,792)"/>
    <path fill-rule="evenodd" fill="#eee7de" d="M220.8838 500.2775C221.671 499.72 226.0284 499.286 226.7753 499.5145L227.5889 507.1311 230.1273 506.9605 234.354 498.765 241.4149 498.3423C240.9846 499.4189 236.9682 505.5712 236.3751 507.2204 238.2534 508.2191 240.1923 508.5235 241.1345 512.1349 241.878 514.9851 241.1408 518.3175 239.5661 519.8122 236.8888 522.3535 228.024 522.5803 223.3772 523.2231Z" transform="matrix(1,0,0,-1,0,792)"/>
    <path fill-rule="evenodd" fill="#eee7de" d="M258.5806 685.2339 263.4242 683.8129 266.8246 695.412C267.2252 695.1212 268.3018 691.0353 268.4985 690.3901 269.0113 688.7098 269.5173 687.117 270.0048 685.4482 270.2582 684.5817 270.485 683.788 270.7588 682.9713 270.8427 682.7207 271.0528 682.0475 271.1279 681.8573 271.5398 680.8178 271.0403 681.378 271.9111 680.9199 272.6133 680.5508 275.8853 679.2568 276.6078 679.07L283.3228 698.3271 278.4986 700.2882 274.5332 689.1347 270.3135 703.2285 264.1898 705.1034C263.6478 703.9029 258.5761 686.0404 258.5806 685.2339" transform="matrix(1,0,0,-1,0,792)"/>
    <path fill-rule="evenodd" fill="#eee7de" d="M254.2603 513.3835 252.7988 522.2109 247.426 521.4365C247.3747 521.4206 247.2877 521.3925 247.2233 521.3605L250.397 499.0368 255.99 499.5641C256.2721 500.2143 255.5073 503.5751 255.3715 504.6636 255.162 506.3454 256.6687 507.3684 257.3365 508.765 258.4953 508.2395 258.0945 508.174 259.3148 506.8103 260.0493 505.9894 260.4813 505.904 261.1922 504.9811 263.01 502.6209 263.6844 502.7003 264.6476 500.9692L271.9585 502.1371 260.7134 513.6704C261.5049 515.3641 263.2229 517.5156 264.3114 519.2342 265.0331 520.3738 267.465 523.7861 267.7598 524.6527 258.6087 522.8107 261.4363 524.9435 256.7886 517.3432 256.3659 516.6522 256.0224 516.1499 255.5317 515.3845L254.687 514.002C254.6473 513.9386 254.5203 513.7438 254.4837 513.6891Z" transform="matrix(1,0,0,-1,0,792)"/>
    <path fill-rule="evenodd" fill="#eee7de" d="M218.6762 540.9275 225.2364 540.4578C223.9299 544.4206 225.8983 548.9317 228.545 551.5407 228.973 551.9625 229.4544 552.1961 229.771 552.5532 231.192 554.1568 230.5559 557.7987 229.6877 559.5423 228.8503 561.2238 226.9885 563.2089 224.7398 563.5743 223.6354 562.8163 223.2527 561.6351 222.3975 560.9061 219.5745 558.4997 217.8802 556.1314 211.5765 556.2519 211.8356 554.4995 213.821 552.9501 212.33 547.9146 211.8501 546.2932 211.5366 545.819 210.6468 544.6378 208.8315 542.2272 209.2958 543.2734 207.989 541.9225Z" transform="matrix(1,0,0,-1,0,792)"/>
    <path fill-rule="evenodd" fill="#eee7de" d="M168.2768 532.5347 163.4193 531.5443C164.6031 524.2348 172.3215 517.737 178.3803 520.5966 181.8635 522.2407 183.0538 526.7571 181.2747 529.7477 180.735 530.6553 180.4195 530.9841 179.8268 531.7662 179.4801 532.2237 179.4668 532.3462 179.1006 532.785 177.8372 534.2995 175.8773 536.0919 176.8059 538.2539 180.4677 539.3693 182.9741 536.434 183.4977 532.997L188.0422 534.0436C188.0311 536.5908 186.571 538.524 185.5332 539.9654 181.5216 545.5361 170.8608 545.8107 170.6698 537.9814 170.5941 534.873 173.1864 532.3079 175.1026 529.7706 178.1637 525.7171 174.8962 524.1824 172.3232 525.998L170.1782 528.0707C169.956 528.3816 169.5815 528.963 169.2876 529.4186 168.7377 530.2718 168.3388 531.3929 168.2768 532.5347" transform="matrix(1,0,0,-1,0,792)"/>
    <path fill-rule="evenodd" fill="#eee7de" d="M297.2721 516.5368 292.2129 517.7251C290.8043 515.5517 290.6501 513.6772 286.9007 512.5144 283.6556 511.5081 281.0679 513.2483 279.9315 515.2796 277.6005 519.4466 279.5471 526.9538 288.7421 524.3876 289.2039 524.8828 291.4866 528.2872 291.71 528.8139 288.7988 529.8358 287.4243 530.7636 283.6596 530.1819 280.5205 529.6972 278.9218 528.5191 276.9917 527.1542 269.151 521.6102 272.8885 504.3966 286.9829 507.0053 290.7371 507.7001 293.9698 509.9323 295.6932 512.9144 296.2485 513.8756 296.9722 515.2416 297.2721 516.5368" transform="matrix(1,0,0,-1,0,792)"/>
    <path fill-rule="evenodd" fill="#eee7de" d="M207.8453 693.5128C206.3801 695.63 206.1612 699.4259 204.8941 701.8812L199.9587 700.467 206.3021 679.8932 211.415 681.6271C210.079 686.2484 208.9743 686.6889 211.134 689.6968 211.9935 688.748 212.9278 688.2163 213.8598 687.3454 217.8711 683.5983 216.487 683.5337 220.2653 684.362 221.6214 684.6593 223.2754 685.1109 224.6238 685.1934L220.5057 688.7993C220.1547 689.1177 220.2259 689.1321 219.9019 689.4187L213.6943 694.6393 218.6614 705.6876C217.3102 705.5495 215.4793 705.0013 214.0832 704.6646 211.7511 704.1025 212.226 703.8241 211.2911 701.7724 210.0764 699.1075 208.9947 696.3233 207.8453 693.5128" transform="matrix(1,0,0,-1,0,792)"/>
    <path fill-rule="evenodd" fill="#eee7de" d="M252.5485 626.491C253.2283 626.934 252.7906 626.6775 253.1421 627.1081 249.7201 627.9392 251.2205 634.638 254.3723 632.1132 255.0917 631.5369 255.3386 630.6318 255.5039 629.5201 256.248 630.1826 258.1384 631.9919 257.9272 633.4067 257.6095 635.5366 253.4176 639.8921 250.3933 639.1029 248.4626 638.5992 248.4408 636.6679 248.1576 634.7273 246.678 635.3977 248.2495 635.959 245.2385 638.6131 244.2713 639.4657 242.0921 640.548 240.3621 640.6923 233.1632 641.2927 233.8112 628.6929 241.831 624.7638 247.2622 622.1027 249.1211 626.5587 252.5485 626.491" transform="matrix(1,0,0,-1,0,792)"/>
    <path fill-rule="evenodd" fill="#030609" d="M227.1481 618.8213C229.0561 619.0637 229.038 621.5043 230.9434 618.8587 231.4463 618.1605 231.738 617.8952 232.3491 617.1163 230.413 614.7901 229.2868 610.9838 231.1654 607.6684 233.0529 604.3363 236.2674 603.5227 239.9941 604.6024 241.865 605.1444 242.7752 605.613 244.2546 606.5351 244.5945 606.7471 244.9644 606.9657 245.166 607.1139 250.9603 611.3735 246.6391 610.6878 251.7406 611.5 253.5049 611.7809 255.2187 612.377 256.263 613.3952 254.4962 614.2745 250.1555 611.0328 241.2139 613.9797 238.4807 614.8803 235.1449 616.8246 233.0048 618.6855L231.0576 620.9541C231.7609 621.7968 233.045 621.5791 233.824 622.0142 233.5289 624.9977 226.8592 623.3281 227.1481 618.8213" transform="matrix(1,0,0,-1,0,792)"/>
    <path fill-rule="evenodd" fill="#eee7de" d="M271.0205 565.7655 271.1625 559.5868C273.3163 558.599 275.8995 556.5033 277.6277 555.624 278.7528 555.0514 280.2594 556.1008 281.3176 556.5617 282.5031 557.0782 284.0423 557.5541 285.1336 558.2117 285.2563 558.9425 284.8535 563.8779 284.6642 564.7224 284.4346 565.7462 281.8193 567.4382 280.8113 568.0086 278.0167 569.5892 278.7307 569.5364 273.4821 567.1253L271.5259 566.1088C271.4729 566.0765 271.4054 566.0308 271.3575 566.0002Z" transform="matrix(1,0,0,-1,0,792)"/>
    <path fill-rule="evenodd" fill="#eee7de" d="M278.8526 554.3209 277.4514 546.0463C278.6153 545.5414 281.2618 543.0093 282.5405 541.8865 283.9921 542.2564 286.1722 543.4274 287.5876 544.0932 289.2526 544.877 289.3442 545.3342 290.213 548.6698 291.2868 552.7928 291.1054 552.3386 289.5072 553.6417L285.8828 557.1499C284.5732 556.8996 280.9412 554.8402 278.8526 554.3209" transform="matrix(1,0,0,-1,0,792)"/>
    <path fill-rule="evenodd" fill="#eee7de" d="M270.0941 566.03C265.7038 566.9447 264.4512 568.6123 262.4803 566.481 260.8033 564.6677 261.8271 566.3225 259.2967 562.9589 258.8797 562.4048 258.143 561.4937 257.8601 560.9174 257.4196 560.0197 257.6962 556.4316 258.0284 555.154 258.3281 554.0023 260.4285 553.8906 262.9579 553.3277 264.6017 552.9617 264.8993 554.0329 266.6234 555.882 271.6569 561.2805 269.4294 558.2673 270.0941 566.03" transform="matrix(1,0,0,-1,0,792)"/>
    <path fill-rule="evenodd" fill="#eee7de" d="M293.5701 536.0893 306.8938 518.9374C307.6829 519.3238 308.5792 520.0858 309.1612 520.5393 309.871 521.0923 310.9258 521.8707 311.6489 522.2004 310.8798 523.8224 309.4364 525.2686 308.4228 526.6579 307.8828 527.3977 307.3204 527.9961 306.7736 528.7258L298.169 539.4566C296.8625 538.7431 294.2606 536.5355 293.5701 536.0893" transform="matrix(1,0,0,-1,0,792)"/>
    <path fill-rule="evenodd" fill="#eee7de" d="M268.8965 544.235 266.9607 538.9489C268.0444 538.4789 269.2539 537.1671 270.5644 536.1752 272.7386 534.5297 273.3673 534.1859 277.8973 535.1726 279.2069 535.4578 279.072 535.5261 279.6228 536.6721 280.23 537.935 281.1798 539.6462 281.6141 540.9581L276.6334 545.2177C276.1072 545.4663 275.8595 545.3235 274.8915 545.1514 274.2503 545.0377 273.6136 544.9377 272.9463 544.8373 271.6478 544.642 270.2293 544.4031 268.8965 544.235" transform="matrix(1,0,0,-1,0,792)"/>
    <path fill-rule="evenodd" fill="#eee7de" d="M265.9629 539.6139C266.2325 541.2152 266.997 542.6901 267.4687 544.1567 267.9378 545.6146 266.5644 547.166 265.8994 548.369 265.197 549.6395 264.7383 551.5444 263.2728 551.9659 262.0797 552.3092 259.399 552.941 258.2294 553.0637 257.7546 552.1175 257.3209 549.7016 257.0885 548.5385 256.5921 546.0565 258.1841 544.3379 259.4438 542.1832 259.9897 541.2492 259.8267 541.0077 260.9597 540.7129 262.4839 540.3166 264.4169 539.8696 265.9629 539.6139" transform="matrix(1,0,0,-1,0,792)"/>
    <path fill-rule="evenodd" fill="#eee7de" d="M240.8502 568.9902C241.7624 567.0992 242.6692 566.7772 242.8503 563.7365 243.6803 564.2294 244.1565 564.6954 245.1447 565.2147 248.8601 567.1675 249.8474 567.2755 254.2221 567L256.3058 566.5096C256.7361 566.0416 257.2064 565.7661 257.7331 565.4682 261.2381 569.0843 262.8632 571.9487 269.8724 573.9644 275.8822 575.6922 282.1547 574.2856 286.5781 571.5383 289.0947 569.9752 290.1855 568.6089 291.9379 566.7327 293.5284 565.0296 294.7266 562.8436 295.8415 560.2173 298.2694 554.4964 297.4961 548.6536 295.4117 543.2658 297.6996 544.2304 299.0064 550.3357 298.9137 553.6142 298.8615 555.4743 298.548 557.896 298.0293 559.6903 297.3288 562.1151 297.419 560.9957 299.4985 563.9403 303.2654 569.2745 306.5638 574.5237 309.3574 581.8601 314.9906 596.6527 316.0627 613.7847 311.2523 629.4628 310.108 633.1921 308.8774 636.1044 307.4057 639.5017 305.604 643.6619 300.7457 651.6683 297.3121 655.4614 296.8506 655.9719 296.9124 655.852 296.5096 656.3959 294.9968 658.44 290.8069 662.0958 289.6163 663.3819 286.6329 666.6063 276.0849 673.0764 272.9381 674.4883 257.2886 681.5089 243.9136 684.074 226.6483 680.449 219.5022 678.9484 211.8611 676.3839 206.0884 673.2249 201.7809 670.8679 197.1581 668.1163 193.5116 664.9566 191.1682 662.9258 186.1186 658.3448 184.7112 656.4081 184.1391 655.6209 183.7369 655.2621 183.128 654.5132 181.0434 651.9472 179.2777 649.3813 177.3658 646.3877 165.4741 627.7674 162.9394 600.8508 172.5931 579.5997 174.6624 575.0442 177.2118 570.1703 180.1624 566.3347L183.1119 562.2922C181.5471 558.5763 180.942 554.0278 182.228 549.7875 183.1856 546.6308 185.3583 544.0428 188.3322 542.9815 189.8178 542.4517 189.8226 542.9463 189.8243 542.9466 186.6039 544.6695 183.998 550.3921 184.2775 556.1008 184.9978 570.8123 200.9279 581.7047 208.2603 574.5883 209.7116 573.1798 210.9101 569.7635 209.3406 567.7886 208.391 568.0196 206.2103 570.2426 203.3929 567.0153 202.9334 566.4898 202.627 565.8548 201.8044 565.9019 201.6587 567.0397 202.983 568.8893 203.5083 569.3842 204.478 570.2987 206.0178 570.6853 207.845 570.7551 205.7204 577.709 195.4653 573.9738 191.1779 567.576 189.381 564.8944 187.7077 562.0578 187.0415 558.059 183.9557 539.5439 208.9182 537.4114 210.4438 550.6231 210.6689 552.5697 209.7794 555.2461 208.6608 555.9041 208.2129 556.1674 201.2289 557.1275 199.7612 559.1843 197.9963 561.6581 202.4087 559.1092 203.5556 558.7234 208.0233 557.2219 218.5724 557.9875 220.5187 562.5842 219.293 563.3283 218.1331 563.8119 217.0329 564.5134 215.6856 565.3721 216.0825 565.2632 215.6386 565.8523 214.1858 567.7824 213.3938 567.7821 212.2438 567.1159 211.5802 567.146 210.8772 566.3752 208.2977 566.5689 209.408 567.7407 210.8273 568.527 212.5908 569.3596 212.2333 570.6556 211.4833 571.1822 210.8659 572.4836 209.1702 576.0564 208.8437 580.464 210.6434 583.8216 212.6792 587.6206 217.5846 591.7808 218.8395 594.79 218.7845 594.826 218.6974 594.9414 218.6691 594.8901 218.6408 594.8391 218.5384 594.968 218.4993 594.9873L217.4 595.4003C216.7781 595.5707 216.163 595.6855 215.5496 595.7779 214.2111 595.98 212.9511 596.0786 211.5921 596.0849 208.387 596.0996 206.6306 595.5701 203.7787 595.1117 204.5058 593.9875 208.4471 593.0147 207.3702 587.1027 206.7446 583.6674 204.2946 581.593 200.81 581.639 201.0373 579.4466 200.4792 578.5177 199.2433 577.6135 195.9364 575.1938 191.6966 575.4974 188.9983 578.1487 188.2772 578.8576 188.3843 579.0512 187.7769 579.8775 184.9246 580.3909 183.9489 580.5369 182.73 582.5554 181.9925 583.7769 182.2173 583.9917 181.1928 584.9836 174.6471 591.3193 180.2531 599.8272 186.3867 601.6371 188.0884 602.1397 188.0929 601.6606 189.2931 602.6961 193.1729 606.0436 197.4915 608.0352 203.3833 608.5301 201.8384 609.9018 196.1504 611.5989 196.4438 620.1026 196.5359 622.7785 197.0277 623.0435 197.8968 624.8741 198.3234 625.7724 197.9476 625.7384 197.5459 626.8677 195.6444 632.2082 196.543 640.4825 198.3756 645.7249 202.576 657.7373 211.9195 667.9485 220.4802 673.4599 225.3214 676.5772 231.6234 679.4167 239.1211 679.6213 247.6613 679.854 252.7625 677.7065 259.1742 674.6216 263.5642 672.51 270.923 666.5508 268.672 660.2445 267.7266 657.5967 265.0136 655.4018 262.0395 654.4862 257.866 653.2013 254.461 654.0962 250.4265 653.944 249.319 649.9247 253.6583 652.2256 262.2149 647.6556 267.6081 644.7747 268.9345 638.4283 263.4208 637.2048 263.5549 639.701 269.4416 644.7212 251.2037 649.0344 245.3754 650.4126 239.9471 651.1243 233.9184 651.109 232.429 651.1056 228.4191 650.4222 227.592 651.4792 223.9872 655.3086 247.4609 652.178 247.7367 652.1666 248.5766 654.9979 249.1129 653.8428 241.7014 655.1759 240.622 655.3701 233.9677 656.6397 235.7529 658.6475 235.8601 658.7677 235.5389 659.442 237.6918 658.853 244.074 657.1069 257.7892 654.7895 263.2275 657.7569 268.564 660.668 266.0298 666.7373 260.4475 670.4374 253.0996 675.3073 244.4576 677.937 235.0993 676.4587 227.5271 675.2625 222.4386 671.8306 217.1914 667.8224 216.5406 667.3252 216.415 667.0216 215.7925 666.5091 215.2094 666.0292 214.8562 665.7851 214.2856 665.2704 207.2741 658.946 200.3168 647.5439 199.4777 637.2079 199.2835 634.8183 199.3635 629.2834 200.4287 627.3071 202.1298 627.7482 207.0754 631.815 214.3208 628.2865L217.4094 632.6257C218.4182 633.9484 219.7933 635.5077 220.9201 636.5622 222.5231 638.062 226.8836 642.1737 229.5958 642.8772 230.1279 643.2939 230.4326 643.1686 231.2036 643.21 232.2743 645.603 232.17 646.935 234.3643 648.1806 236.8239 649.5766 239.095 648.0488 240.3717 646.8622L248.1364 646.1702C252.089 647.0172 253.112 645.6013 255.8225 643.9731 258.2286 642.528 261.6775 642.8472 262.4117 639.8569L261.1542 639.4428C261.9179 638.3557 262.4564 637.9863 262.942 636.4307 266.5429 636.6501 267.2206 637.5563 270.5613 635.6616 275.3084 632.9704 276.1209 627.6149 273.8358 623.0701 272.5622 620.5374 271.4284 619.8029 269.3999 618.3547 267.0347 616.6667 269.6397 611.5113 256.0334 604.4394 255.024 603.9147 254.0327 603.5638 252.9666 603.0323 252.4133 602.7562 252.021 602.5847 251.479 602.2973 251.1493 602.1221 250.8968 601.9693 250.7017 601.831L249.9956 601.2397C254.5999 598.2389 261.199 597.8718 266.008 600.8953 268.7003 602.5876 266.0173 606.1363 271.4 610.1512 271.9449 610.5569 272.5506 610.9517 273.3364 611.1808 274.9431 611.6499 274.2551 611.1635 275.4621 612.0351 276.4131 612.7223 278.062 613.4995 279.5814 613.8692 287.5904 615.8171 288.091 610.3562 289.3465 609.5217 290.6022 608.6869 292.7109 607.7829 292.8458 603.9748 292.8827 602.934 292.7344 602.2049 292.3673 601.3208 291.7247 599.7713 291.8679 600.6274 292.3702 599.1797 293.6324 595.5429 289.9726 589.7208 284.1381 590.1571 283.6307 588.1683 281.9098 586.9786 279.5522 586.6109 276.3003 586.1035 274.8481 586.8737 272.6175 588.1218 271.3819 587.7332 269.8339 586.7663 267.2419 586.0321 256.4666 582.9809 249.4412 587.5991 247.9212 587.4752 246.3585 581.2194 247.7339 582.5871 246.5062 578.5554 244.137 570.7684 243.0221 571.9479 240.8502 568.9902" transform="matrix(1,0,0,-1,0,792)"/>
    <path fill-rule="evenodd" fill="#085e8b" d="M282.7431 604.2166C282.7894 599.2778 282.4957 601.3556 282.2652 598.2863 285.266 597.7431 287.7792 598.989 289.584 601.1583 291.6244 603.6111 290.4902 607.0235 288.1519 607.89 286.9588 606.6468 287.8965 606.9033 285.9335 605.7774 284.9006 605.1847 283.5964 604.8184 282.7431 604.2166" transform="matrix(1,0,0,-1,0,792)"/>
    <path fill-rule="evenodd" fill="#030609" d="M201.6692 617.654C202.7696 617.7382 201.9583 617.6458 202.9652 618.7878 204.5296 620.5629 206.6601 620.2406 208.6557 619.3488L207.9074 618.0795C206.8248 615.9002 207.906 613.8468 209.5316 612.3334 210.6748 611.2687 212.6684 610.4571 214.1087 611.4107 213.4392 612.2174 211.9788 611.9181 210.9368 613.2413 208.9998 615.7009 211.1363 618.1877 213.7161 616.0204 214.7187 615.1782 214.7479 614.8001 216.1429 614.2501 216.5003 618.4925 204.0523 624.5084 201.8849 620.352 201.4526 619.5231 201.1105 618.4247 201.6692 617.654" transform="matrix(1,0,0,-1,0,792)"/>
    <path fill-rule="evenodd" fill="#002645" d="M228.1541 511.6935C231.0077 511.069 235.4108 510.5588 235.5985 513.9513 235.7878 517.3781 231.7898 517.7064 228.7494 517.648Z" transform="matrix(1,0,0,-1,0,792)"/>
    <path fill-rule="evenodd" fill="#085e8b" d="M290.5787 598.8509C289.8751 598.5332 290.5313 598.9275 289.7901 598.4527 288.2517 597.4676 287.888 596.8159 284.7047 596.3406 284.0916 596.2493 281.1095 596.3522 281.109 596.3519 279.1517 595.2838 282.0694 589.4705 287.7863 593.2514 289.6982 594.5162 290.6093 596.4636 290.5787 598.8509" transform="matrix(1,0,0,-1,0,792)"/>
    <path fill-rule="evenodd" fill="#eee7de" d="M291.7191 541.5605C293.5947 543.8313 296.2809 552.4282 294.2595 555.7864 290.9259 550.7203 292.6916 553.767 291.3222 548.5436 290.5946 545.7679 288.9519 544.9238 291.7191 541.5605" transform="matrix(1,0,0,-1,0,792)"/>
    <path fill-rule="evenodd" fill="#cb3827" d="M235.9029 609.6047 235.4077 610.6439C234.7449 612.1293 234.3934 612.8212 232.2856 612.6826 232.052 612.2324 230.5366 610.8613 232.1167 608.3878 233.9595 605.5033 239.0593 605.0001 239.4598 608.2038 239.7654 610.6462 237.35 610.5611 235.9029 609.6047" transform="matrix(1,0,0,-1,0,792)"/>
    <path fill-rule="evenodd" fill="#030609" d="M236.1594 537.9335C239.5539 536.6432 249.0471 542.8335 252.1001 546.5928 252.9391 547.6263 253.2302 547.85 252.5136 548.8637 251.7868 548.6791 249.5557 546.4358 248.91 545.8096 246.6677 543.6354 243.5615 541.8272 240.5659 540.5037 237.2383 539.0334 236.1716 539.5524 236.1594 537.9335" transform="matrix(1,0,0,-1,0,792)"/>
    <path fill-rule="evenodd" fill="#085e8b" d="M277.986 610.9143C280.0542 609.6912 281.829 608.2883 282.443 605.6501 284.6041 606.2224 288.3093 608.4187 286.2816 610.6748 284.8003 612.3229 282.0674 612.1332 279.9788 611.7344 279.2007 611.5856 278.5436 611.4852 277.986 610.9143" transform="matrix(1,0,0,-1,0,792)"/>
    <path fill-rule="evenodd" fill="#030609" d="M231.2036 643.21 231.1656 640.2725 232.5373 640.0157C232.8868 641.3142 233.4441 643.883 234.2792 645.0344 237.0078 648.798 242.572 642.7936 240.3717 646.8622 239.095 648.0485 236.8239 649.5763 234.3645 648.1806 232.1697 646.935 232.2746 645.6033 231.2036 643.21" transform="matrix(1,0,0,-1,0,792)"/>
    <path fill-rule="evenodd" fill="#030609" d="M244.6053 631.2909C243.2574 630.483 243.4329 628.2711 243.8555 627.0593 244.2903 625.8129 245.3644 624.4642 247.1136 625.481 249.6013 626.9275 247.4793 633.0135 244.6053 631.2909" transform="matrix(1,0,0,-1,0,792)"/>
    <path fill-rule="evenodd" fill="#eee7de" d="M289.3663 566.0739C286.5359 569.607 282.6731 571.3384 277.9719 572.0066 278.3418 569.6938 279.4147 570.8985 282.9195 568.1293 283.7293 567.4895 284.3252 566.729 285.5007 566.4543 286.433 566.2363 288.4603 565.9727 289.3663 566.0739" transform="matrix(1,0,0,-1,0,792)"/>
  </g>
</svg>